<svg width="109" height="51" viewBox="0 0 109 51" fill="none" xmlns="http://www.w3.org/2000/svg">
<g clip-path="url(#clip0_2_53)">
<path fill-rule="evenodd" clip-rule="evenodd" d="M98.1899 50.61H108.22V30.85H98.1899V50.61Z" fill="#D6D6D6"/>
<path fill-rule="evenodd" clip-rule="evenodd" d="M54.5999 44.29L58.8899 47.4L57.6699 43.65L54.5999 44.29Z" fill="white"/>
<path fill-rule="evenodd" clip-rule="evenodd" d="M66.5498 50.61H86.3498V30.85H66.5498V50.61Z" fill="#00B67A"/>
<path fill-rule="evenodd" clip-rule="evenodd" d="M88.4099 50.61H98.4299V30.85H88.4099V50.61Z" fill="#00B67A"/>
<path fill-rule="evenodd" clip-rule="evenodd" d="M83.4298 39.26H78.1298L76.4898 34.23L74.8498 39.26H69.5498L73.8398 42.37L72.1998 47.4L83.4298 39.26Z" fill="white"/>
<path fill-rule="evenodd" clip-rule="evenodd" d="M76.49 44.29L80.78 47.4L79.55 43.65L76.49 44.29Z" fill="white"/>
<path fill-rule="evenodd" clip-rule="evenodd" d="M44.6699 50.61H64.4599V30.85H44.6699V50.61Z" fill="#00B67A"/>
<path fill-rule="evenodd" clip-rule="evenodd" d="M22.78 50.61H42.57V30.85H22.78V50.61Z" fill="#00B67A"/>
<path fill-rule="evenodd" clip-rule="evenodd" d="M39.7499 39.31H34.3699L32.6999 34.26L31.0399 39.31H25.6599L30.0199 42.44L28.3499 47.49L39.7499 39.31Z" fill="white"/>
<path fill-rule="evenodd" clip-rule="evenodd" d="M32.49 44.31L36.76 47.49L35.54 43.65L32.49 44.31Z" fill="white"/>
<path fill-rule="evenodd" clip-rule="evenodd" d="M0.909912 50.61H20.6999V30.85H0.909912V50.61Z" fill="#00B67A"/>
<path fill-rule="evenodd" clip-rule="evenodd" d="M17.7799 39.26H12.4799L10.8499 34.23L9.20991 39.26H3.90991L8.19991 42.37L6.55991 47.4L17.7799 39.26Z" fill="white"/>
<path fill-rule="evenodd" clip-rule="evenodd" d="M10.8499 44.29L15.1299 47.4L13.9099 43.65L10.8499 44.29Z" fill="white"/>
<path fill-rule="evenodd" clip-rule="evenodd" d="M105.3 39.26H99.9999L98.3599 34.23L96.7199 39.26H91.4199L95.7099 42.37L94.0699 47.4L105.3 39.26Z" fill="white"/>
<path fill-rule="evenodd" clip-rule="evenodd" d="M98.3599 44.29L102.65 47.4L101.43 43.65L98.3599 44.29Z" fill="white"/>
<path fill-rule="evenodd" clip-rule="evenodd" d="M61.4999 39.26H56.1999L54.5599 34.23L52.9199 39.26H47.6299L51.9099 42.37L50.2699 47.4L61.4999 39.26Z" fill="white"/>
<path fill-rule="evenodd" clip-rule="evenodd" d="M54.5598 44.29L58.8498 47.4L57.6298 43.65L54.5598 44.29Z" fill="white"/>
<path d="M25.8999 8.87H35.8999V10.79H31.9999V21.61H29.7999V10.79H25.8899V8.87H25.8999ZM35.4499 12.39H37.2999V14.17C37.3653 13.9071 37.4807 13.6592 37.6399 13.44C37.9882 12.9406 38.4699 12.549 39.0299 12.31C39.3095 12.1958 39.6079 12.1348 39.9099 12.13H40.3799H40.6499V14.13C40.5116 14.0995 40.3712 14.0795 40.2299 14.07H39.7999C39.4749 14.0694 39.1538 14.1411 38.8599 14.28C38.5631 14.4177 38.3028 14.6233 38.0999 14.88C37.8614 15.1767 37.6815 15.5161 37.5699 15.88C37.4341 16.3202 37.37 16.7794 37.3799 17.24V21.63H35.3799V12.39H35.4499ZM49.7199 21.61H47.7899V20.33C47.5441 20.7962 47.1691 21.1816 46.7099 21.44C46.2704 21.7112 45.7662 21.8597 45.2499 21.87C44.785 21.9145 44.3159 21.8571 43.8755 21.7016C43.4351 21.5462 43.0339 21.2965 42.6999 20.97C42.1195 20.1833 41.8393 19.2151 41.9099 18.24V12.39H43.9099V18C43.8505 18.6086 44.01 19.2185 44.3599 19.72C44.5212 19.8901 44.7172 20.0237 44.9346 20.1117C45.1519 20.1997 45.3856 20.24 45.6199 20.23C45.9636 20.2345 46.3044 20.1664 46.6199 20.03C46.8809 19.9071 47.1102 19.7257 47.2899 19.5C47.4682 19.2661 47.5944 18.9967 47.6599 18.71C47.7419 18.3831 47.7822 18.0471 47.7799 17.71V12.39H49.7799L49.7199 21.61ZM53.0699 18.66C53.0753 18.9053 53.1378 19.146 53.2523 19.3629C53.3669 19.5799 53.5304 19.7672 53.7299 19.91C54.1409 20.1542 54.6119 20.2788 55.0899 20.27C55.3007 20.266 55.5111 20.2493 55.7199 20.22C55.946 20.1906 56.1677 20.1335 56.3799 20.05C56.5783 19.9715 56.7537 19.8442 56.8899 19.68C57.0225 19.4974 57.0894 19.2754 57.0799 19.05C57.0777 18.9301 57.0518 18.8119 57.0037 18.7021C56.9557 18.5922 56.8864 18.493 56.7999 18.41C56.6079 18.2351 56.3838 18.0992 56.1399 18.01C55.8372 17.8991 55.5262 17.8122 55.2099 17.75L54.1599 17.51C53.7999 17.43 53.4399 17.32 53.0999 17.21C52.7719 17.0972 52.4646 16.9317 52.1899 16.72C51.9168 16.5168 51.6944 16.2533 51.5399 15.95C51.3691 15.5843 51.2869 15.1834 51.2999 14.78C51.2831 14.3324 51.4092 13.8911 51.6599 13.52C51.8904 13.1826 52.1948 12.9022 52.5499 12.7C52.9273 12.4901 53.3358 12.3415 53.7599 12.26C54.1687 12.1809 54.5836 12.1374 54.9999 12.13C55.4447 12.1308 55.8878 12.1845 56.3199 12.29C56.7265 12.3827 57.1128 12.5487 57.4599 12.78C57.8007 13.0118 58.09 13.3114 58.3099 13.66C58.5576 14.0677 58.7113 14.5254 58.7599 15H56.7599C56.7436 14.7936 56.6767 14.5943 56.5651 14.4199C56.4534 14.2455 56.3005 14.1013 56.1199 14C55.7573 13.8182 55.3554 13.7289 54.9499 13.74C54.7835 13.7274 54.6163 13.7274 54.4499 13.74C54.2665 13.7679 54.0859 13.8114 53.9099 13.87C53.753 13.9395 53.6105 14.0379 53.4899 14.16C53.3701 14.2986 53.3059 14.4768 53.3099 14.66C53.3058 14.7731 53.3271 14.8856 53.3721 14.9894C53.417 15.0932 53.4846 15.1856 53.5699 15.26C53.7612 15.4282 53.9815 15.5603 54.2199 15.65C54.5192 15.761 54.8268 15.8479 55.1399 15.91L56.2099 16.14C56.5658 16.2221 56.9164 16.3256 57.2599 16.45C57.5945 16.557 57.9088 16.7193 58.1899 16.93C58.4841 17.151 58.7198 17.4406 58.8767 17.7734C59.0335 18.1063 59.1067 18.4724 59.0899 18.84C59.1061 19.3283 58.9811 19.8109 58.7299 20.23C58.4896 20.6061 58.1685 20.9238 57.7899 21.16C57.3888 21.3979 56.9538 21.5732 56.4999 21.68C56.0409 21.7869 55.5712 21.8406 55.0999 21.84C54.5705 21.8462 54.0425 21.7823 53.5299 21.65C53.084 21.5258 52.664 21.3225 52.2899 21.05C51.9404 20.7845 51.6565 20.4424 51.4599 20.05C51.2514 19.6055 51.1422 19.121 51.1399 18.63H53.1399L53.0699 18.66ZM59.5599 12.39H61.0499V9.62H63.0499V12.39H64.8199V13.91H62.9999V18.84V19.39C63.0125 19.5314 63.0569 19.6682 63.1299 19.79C63.19 19.9021 63.2899 19.9877 63.4099 20.03C63.5789 20.0938 63.7596 20.121 63.9399 20.11H64.3499C64.4916 20.1049 64.6324 20.0848 64.7699 20.05V21.62L64.1399 21.7C63.9299 21.7 63.7199 21.7 63.4999 21.7C63.0781 21.7128 62.6567 21.6622 62.2499 21.55C61.9655 21.4734 61.7088 21.3173 61.5099 21.1C61.3209 20.892 61.1929 20.636 61.1399 20.36C61.0748 20.0304 61.038 19.6959 61.0299 19.36V13.92H59.5799V12.39H59.5599ZM66.1799 12.39H68.0499V13.64C68.2957 13.1343 68.7042 12.7258 69.2099 12.48C69.7141 12.2457 70.264 12.1262 70.8199 12.13C71.4521 12.1135 72.0793 12.2472 72.6499 12.52C73.1787 12.7548 73.6422 13.1152 73.9999 13.57C74.3563 14.0382 74.6179 14.5715 74.7699 15.14C74.9404 15.7618 75.0179 16.4055 74.9999 17.05C75.0054 17.6544 74.928 18.2567 74.7699 18.84C74.6268 19.3929 74.39 19.9171 74.0699 20.39C73.7539 20.8347 73.3399 21.2008 72.8599 21.46C72.3352 21.7429 71.7458 21.8843 71.1499 21.87C70.8615 21.8682 70.5737 21.8414 70.2899 21.79C70.0039 21.7318 69.7254 21.6413 69.4599 21.52C69.1966 21.405 68.9509 21.2535 68.7299 21.07C68.5118 20.8825 68.3231 20.6634 68.1699 20.42V25H66.1699V12.39H66.1799ZM73.0599 17C73.0616 16.588 73.0077 16.1776 72.8999 15.78C72.8009 15.4225 72.642 15.0844 72.4299 14.78C72.2272 14.4854 71.9649 14.2367 71.6599 14.05C71.1766 13.7887 70.6165 13.7067 70.0785 13.8183C69.5406 13.9299 69.0594 14.228 68.7199 14.66C68.2766 15.3577 68.0568 16.1741 68.0899 17C68.082 17.4361 68.1393 17.8709 68.2599 18.29C68.3594 18.651 68.5256 18.9902 68.7499 19.29C68.9577 19.5677 69.224 19.7964 69.5299 19.96C69.8571 20.1403 70.2264 20.2301 70.5999 20.22C70.9928 20.2516 71.3869 20.1755 71.7399 20C72.0444 19.8121 72.3039 19.5594 72.4999 19.26C72.7016 18.9537 72.8503 18.6157 72.9399 18.26C73.0192 17.8447 73.0594 17.4228 73.0599 17ZM76.5299 8.86H78.5299V10.78H76.5299V8.86ZM76.5299 12.38H78.5299V21.6H76.5299V12.38ZM80.2499 8.86H82.2499V21.61H80.2499V8.86ZM88.2499 21.86C87.5947 21.8678 86.9448 21.7419 86.3399 21.49C85.8081 21.2536 85.3288 20.9137 84.9299 20.49C84.5375 20.0589 84.2379 19.5518 84.0499 19C83.8359 18.3552 83.7311 17.6793 83.7399 17C83.7359 16.3407 83.8407 15.6852 84.0499 15.06C84.2317 14.4905 84.5315 13.9657 84.9299 13.52C85.3241 13.0909 85.8046 12.7501 86.3399 12.52C86.9448 12.2681 87.5947 12.1422 88.2499 12.15C88.902 12.141 89.5488 12.267 90.1499 12.52C90.6862 12.7535 91.1693 13.0938 91.5699 13.52C91.9683 13.9657 92.2681 14.4905 92.4499 15.06C92.6591 15.6852 92.7639 16.3407 92.7599 17C92.7686 17.6793 92.6639 18.3552 92.4499 19C92.2681 19.5695 91.9683 20.0943 91.5699 20.54C91.1738 20.9714 90.6895 21.3124 90.1499 21.54C89.5459 21.7793 88.8992 21.8916 88.2499 21.87V21.86ZM88.2499 20.25C88.6454 20.2698 89.039 20.1835 89.3899 20C89.706 19.8122 89.9759 19.5559 90.1799 19.25C90.3904 18.946 90.5461 18.6076 90.6399 18.25C90.7454 17.8419 90.7958 17.4215 90.7899 17C90.7887 16.602 90.7383 16.2057 90.6399 15.82C90.5483 15.4616 90.3924 15.1228 90.1799 14.82C89.9755 14.5171 89.7055 14.2641 89.3899 14.08C89.0429 13.8826 88.6491 13.7824 88.2499 13.79C87.8506 13.7809 87.4563 13.8812 87.1099 14.08C86.7964 14.267 86.527 14.5194 86.3199 14.82C86.1112 15.1249 85.9556 15.4631 85.8599 15.82C85.7615 16.2057 85.7111 16.602 85.7099 17C85.7092 17.4014 85.7596 17.8013 85.8599 18.19C85.9502 18.5489 86.1062 18.8879 86.3199 19.19C86.5239 19.4959 86.7938 19.7522 87.1099 19.94C87.4513 20.1538 87.8471 20.2649 88.2499 20.26V20.25ZM93.3299 12.38H94.8199V9.62H96.8199V12.39H98.5999V13.91H96.7799V18.84C96.7685 19.0232 96.7685 19.2068 96.7799 19.39C96.7942 19.5297 96.8349 19.6655 96.8999 19.79C96.9646 19.9022 97.0676 19.9874 97.1899 20.03C97.3557 20.093 97.5329 20.1202 97.7099 20.11H98.1299C98.2716 20.1049 98.4124 20.0848 98.5499 20.05V21.62L97.9099 21.7C97.7032 21.7 97.4932 21.7 97.2799 21.7C96.8548 21.7127 96.4301 21.6622 96.0199 21.55C95.7377 21.4681 95.4824 21.3128 95.2799 21.1C95.0978 20.8887 94.9738 20.6337 94.9199 20.36C94.8497 20.0312 94.8128 19.6962 94.8099 19.36V13.92H93.3499V12.39L93.3299 12.38Z" fill="black"/>
<path d="M23.61 8.87H14.59L11.81 0L9.01 8.87L0 8.86L7.3 14.35L4.51 23.21L11.81 17.73L19.1 23.21L16.31 14.35L23.61 8.87Z" fill="#00B67A"/>
<path d="M16.9401 16.35L16.3101 14.35L11.8101 17.73L16.9401 16.35Z" fill="#005128"/>
</g>
<defs>
<clipPath id="clip0_2_53">
<rect width="109" height="51" fill="white"/>
</clipPath>
</defs>
</svg>
